<?xml version="1.0" encoding="UTF-8"?><svg id="Layer_1" xmlns="http://www.w3.org/2000/svg" viewBox="0 0 512 512"><defs><style>.cls-1{fill:none;}</style></defs><rect class="cls-1" y="0" width="512" height="512"/><path d="m144,288c0-61.9,50.1-112,112-112s112,50.1,112,112-50.1,112-112,112-112-50.1-112-112Zm112-64c-35.3,0-64,28.7-64,64s28.7,64,64,64,64-28.7,64-64-28.7-64-64-64Zm106.9-159.18l10.4,31.18h74.7c35.3,0,64,28.7,64,64v256c0,35.3-28.7,64-64,64H64c-35.35,0-64-28.7-64-64V160c0-35.3,28.65-64,64-64h74.7l10.4-31.18c6.5-19.6,24.8-32.82,45.5-32.82h122.8c20.7,0,39,13.22,45.5,32.82h0ZM64,144c-8.84,0-16,7.2-16,16v256c0,8.8,7.16,16,16,16h384c8.8,0,16-7.2,16-16V160c0-8.8-7.2-16-16-16h-109.3l-21.3-64h-122.8l-21.3,64h-109.3Z"/></svg>