<?xml version="1.0" encoding="UTF-8"?><svg id="Layer_1" xmlns="http://www.w3.org/2000/svg" viewBox="0 0 512 512"><defs><style>.cls-1{fill:none;}</style></defs><rect class="cls-1" y="0" width="512" height="512"/><path d="m194.6,32h122.8c20.7,0,39,13.22,45.5,32.82l10.4,31.18h74.7c35.3,0,64,28.7,64,64v256c0,35.3-28.7,64-64,64H64c-35.35,0-64-28.7-64-64V160c0-35.3,28.65-64,64-64h74.7l10.4-31.18c6.5-19.6,24.8-32.82,45.5-32.82h0Zm61.4,352c53,0,96-43,96-96s-43-96-96-96-96,42.1-96,96,42.1,96,96,96Z"/></svg>