<svg width="25" height="24" viewBox="0 0 25 24" fill="none" xmlns="http://www.w3.org/2000/svg">
<path d="M13.7 12C13.7 12.8297 13.0296 13.5 12.2 13.5C11.3703 13.5 10.7 12.8297 10.7 12C10.7 11.1703 11.3703 10.5 12.2 10.5C13.0296 10.5 13.7 11.1703 13.7 12ZM0.199951 12C0.199951 5.37188 5.57183 0 12.2 0C18.8281 0 24.2 5.37188 24.2 12C24.2 18.6281 18.8281 24 12.2 24C5.57183 24 0.199951 18.6281 0.199951 12ZM15.439 14.3766L18.0406 7.6125C18.3921 6.66094 17.4968 5.80781 16.5875 6.15937L9.82339 8.76094C9.42495 8.91094 9.11089 9.225 8.96089 9.62344L6.35933 16.3875C6.00776 17.2969 6.86089 18.1922 7.81245 17.8406L14.5765 15.2391C14.975 15.0891 15.289 14.775 15.439 14.3766Z" fill="#475743"/>
</svg>
