<?xml version="1.0" encoding="UTF-8"?><svg id="Layer_1" xmlns="http://www.w3.org/2000/svg" viewBox="0 0 512 512"><defs><style>.cls-1{fill:none;}</style></defs><rect class="cls-1" y="0" width="512" height="512"/><path d="m256,0C114.6,0,0,114.6,0,256s114.6,256,256,256,256-114.6,256-256S397.4,0,256,0Zm0,464c-114.7,0-208-93.31-208-208S141.3,48,256,48s208,93.31,208,208-93.3,208-208,208Zm0-160c13.25,0,24-10.75,24-24v-128c0-13.2-10.7-24-24-24s-24,10.8-24,24v128c0,13.3,10.8,24,24,24Zm0,33.1c-17.36,0-31.44,14.08-31.44,31.44.04,17.36,14.04,31.46,31.44,31.46s31.44-14.08,31.44-31.44c-.04-17.36-14.04-31.46-31.44-31.46Z"/></svg>