<?xml version="1.0" encoding="UTF-8"?><svg id="Layer_1" xmlns="http://www.w3.org/2000/svg" viewBox="0 0 512 512"><defs><style>.cls-1{fill:none;}</style></defs><rect class="cls-1" y="0" width="512" height="512"/><path d="m256,0C114.6,0,0,114.6,0,256s114.6,256,256,256,256-114.6,256-256S397.4,0,256,0Zm-24,152c0-13.2,10.8-24,24-24s24,10.75,24,24v128c0,13.25-10.75,24-24,24s-24-10.7-24-24v-128Zm24,248c-17.36,0-31.44-14.08-31.44-31.44s14.07-31.44,31.44-31.44,31.44,14.08,31.44,31.44c-.04,17.34-14.04,31.44-31.44,31.44Z"/></svg>