<?xml version="1.0" encoding="UTF-8"?><svg id="Layer_1" xmlns="http://www.w3.org/2000/svg" viewBox="0 0 512 512"><defs><style>.cls-1{fill:none;}</style></defs><rect class="cls-1" y="0" width="512" height="512"/><path d="m312,64c15.8,0,30.1,9.3,36.5,23.73,5.6,14.47,3.8,31.27-6.8,43.07l-101.7,113v172.2c0,12.1-6.8,23.2-17.7,28.6-10.8,5.4-23.8,4.3-33.5-3l-64-48c-8.1-6-12.8-15.5-12.8-25.6v-124.2L10.27,130.8C-.3,119-2.97,102.2,3.46,87.73c6.43-14.43,20.74-23.73,35.64-23.73h272.9Zm168,320c17.7,0,32,14.3,32,32s-14.3,32-32,32h-128c-17.7,0-32-14.3-32-32s14.3-32,32-32h128Zm-160-128c0-17.7,14.3-32,32-32h128c17.7,0,32,14.3,32,32s-14.3,32-32,32h-128c-17.7,0-32-14.3-32-32Zm160-192c17.7,0,32,14.33,32,32s-14.3,32-32,32h-64c-17.7,0-32-14.3-32-32s14.3-32,32-32h64Z"/></svg>