<?xml version="1.0" encoding="UTF-8"?><svg id="Layer_1" xmlns="http://www.w3.org/2000/svg" viewBox="0 0 512 512"><defs><style>.cls-1{fill:none;}</style></defs><rect class="cls-1" y="0" width="512" height="512"/><path d="m310.8,64c22.7,0,41.2,18.46,41.2,41.2,0,10.4-3.9,20.5-11.9,28.1l-93,100.1v182c0,18-13.7,32.6-31.7,32.6-7.3,0-12.7-1.9-18-5.4l-76.3-49.8c-10.4-7.4-17.1-20-17.1-33.4v-126L11.02,133.3C3.94,125.7,0,115.6,0,105.2c0-22.74,18.46-41.2,41.23-41.2h269.57Zm-159.7,160v131.1l48,31.7v-162.8c0-6.1,3.2-11.9,7.3-16.3l88.8-95.7H56.75l88.85,95.7c4.1,4.4,5.5,10.2,5.5,16.3h0Zm336.9,168c13.3,0,24,10.7,24,24s-10.7,24-24,24h-144c-13.3,0-24-10.7-24-24s10.7-24,24-24h144Zm-168-136c0-13.3,10.7-24,24-24h144c13.3,0,24,10.7,24,24s-10.7,24-24,24h-144c-13.3,0-24-10.7-24-24Zm168-184c13.3,0,24,10.75,24,24s-10.7,24-24,24h-80c-13.3,0-24-10.7-24-24s10.7-24,24-24h80Z"/></svg>