<svg width="22" height="16" viewBox="0 0 22 16" fill="none" xmlns="http://www.w3.org/2000/svg">
<path d="M13.6167 0C14.5626 0 15.3334 0.769167 15.3334 1.71667C15.3334 2.15 15.1709 2.57083 14.8376 2.8875L10.9626 7.05833V14.6417C10.9626 15.3917 10.3917 16 9.64175 16C9.33758 16 9.11258 15.9208 8.89175 15.775L5.71258 13.7C5.27925 13.3917 5.00008 12.8667 5.00008 12.3083V7.05833L1.12591 2.8875C0.830748 2.57083 0.666748 2.15 0.666748 1.71667C0.666748 0.769167 1.43591 0 2.38466 0H13.6167ZM6.96258 6.66667V12.1292L8.96258 13.45V6.66667C8.96258 6.4125 9.09591 6.17083 9.26675 5.9875L12.9667 2H3.03133L6.73342 5.9875C6.90425 6.17083 6.96258 6.4125 6.96258 6.66667ZM21.0001 13.6667C21.5542 13.6667 22.0001 14.1125 22.0001 14.6667C22.0001 15.2208 21.5542 15.6667 21.0001 15.6667H15.0001C14.4459 15.6667 14.0001 15.2208 14.0001 14.6667C14.0001 14.1125 14.4459 13.6667 15.0001 13.6667H21.0001ZM14.0001 8C14.0001 7.44583 14.4459 7 15.0001 7H21.0001C21.5542 7 22.0001 7.44583 22.0001 8C22.0001 8.55417 21.5542 9 21.0001 9H15.0001C14.4459 9 14.0001 8.55417 14.0001 8ZM21.0001 0.333333C21.5542 0.333333 22.0001 0.78125 22.0001 1.33333C22.0001 1.8875 21.5542 2.33333 21.0001 2.33333H17.6667C17.1126 2.33333 16.6667 1.8875 16.6667 1.33333C16.6667 0.78125 17.1126 0.333333 17.6667 0.333333H21.0001Z" fill="#475743"/>
</svg>
