<?xml version="1.0" encoding="UTF-8"?><svg id="Layer_1" xmlns="http://www.w3.org/2000/svg" viewBox="0 0 512 512"><defs><style>.cls-1{fill:none;}</style></defs><rect class="cls-1" y="0" width="512" height="512"/><path d="m495.91,166.6c3.3,8.6.5,18.3-6.3,24.6l-43.3,39.4c1.1,8.3,1.7,16.8,1.7,25.4s-.6,17.1-1.7,25.4l43.3,39.4c6.8,6.3,9.6,16,6.3,24.6-4.4,11.9-9.7,23.4-15.7,34.3l-4.7,8.1c-6.6,11-14,21.4-22.1,31.3-6,7.1-15.7,9.6-24.5,6.8l-55.7-17.8c-13.4,10.3-29.1,18.9-44,25.5l-12.5,57.1c-2,9-9,15.4-18.2,17.8-13.8,2.3-28,3.5-43.4,3.5-13.6,0-27.8-1.2-41.6-3.5-9.2-2.4-16.2-8.8-18.2-17.8l-12.5-57.1c-15.8-6.6-30.6-15.2-44-25.5l-55.66,17.8c-8.84,2.8-18.59.3-24.51-6.8-8.11-9.9-15.51-20.3-22.11-31.3l-4.68-8.1c-6.07-10.9-11.35-22.4-15.78-34.3-3.24-8.6-.51-18.3,6.35-24.6l43.26-39.4c-1.1-8.3-1.67-16.8-1.67-25.4s.57-17.1,1.67-25.4l-43.26-39.4c-6.86-6.3-9.59-15.9-6.35-24.6,4.43-11.9,9.72-23.4,15.78-34.3l4.67-8.1c6.61-11,14.01-21.4,22.12-31.25,5.92-7.15,15.67-9.63,24.51-6.81l55.66,17.76c13.4-10.34,28.2-18.94,44-25.47l12.5-57.1c2-9.08,9-16.29,18.2-17.82C227.31,1.2,241.51,0,256.01,0s28.7,1.2,42.5,3.51c9.2,1.53,16.2,8.74,18.2,17.82l12.5,57.1c14.9,6.53,30.6,15.13,44,25.47l55.7-17.76c8.8-2.82,18.5-.34,24.5,6.81,8.1,9.85,15.5,20.25,22.1,31.25l4.7,8.1c6,10.9,11.3,22.4,15.7,34.3h0Zm-239.9,169.4c44.2,0,80-35.8,80-80.9s-35.8-80-80-80-80,36.7-80,80,35.8,80.9,80,80.9Z"/></svg>