<svg width="25" height="24" viewBox="0 0 25 24" fill="none" xmlns="http://www.w3.org/2000/svg">
<path d="M23.9902 9.77153L13.1295 0.721658C13.1295 0.721658 13.1267 0.719314 13.1253 0.718377C13.1131 0.708064 13.1004 0.698689 13.0882 0.688845C13.0859 0.68697 13.0831 0.685095 13.0807 0.68322C13.0676 0.673376 13.0545 0.664001 13.0414 0.655094C13.0385 0.653219 13.0362 0.651344 13.0334 0.649469C13.0207 0.641032 13.0081 0.633063 12.9949 0.625094C12.9912 0.62275 12.9874 0.620406 12.9837 0.618062C12.972 0.611031 12.9603 0.604468 12.9485 0.597906C12.9434 0.595093 12.9378 0.591812 12.9326 0.588999C12.9228 0.583843 12.9124 0.578687 12.9026 0.57353C12.8951 0.56978 12.8881 0.566499 12.8806 0.562749C12.8726 0.558999 12.8642 0.555249 12.8562 0.551967C12.8468 0.547748 12.8374 0.54353 12.8281 0.53978C12.822 0.537436 12.8154 0.535092 12.8089 0.532279C12.7976 0.528061 12.7863 0.523842 12.7746 0.519623C12.7699 0.517748 12.7648 0.516342 12.7601 0.514935C12.747 0.510716 12.7343 0.506498 12.7212 0.502748C12.7174 0.50181 12.7137 0.500872 12.7099 0.499466C12.6959 0.495716 12.6818 0.491497 12.6678 0.488216C12.6645 0.487278 12.6612 0.48681 12.6579 0.485872C12.6434 0.482591 12.6288 0.47931 12.6143 0.476497C12.6106 0.475559 12.6068 0.475091 12.6031 0.474622C12.589 0.472278 12.5749 0.469466 12.5609 0.467591C12.5562 0.467122 12.551 0.466184 12.5463 0.465716C12.5332 0.46384 12.5206 0.462434 12.5074 0.461028C12.5009 0.460559 12.4943 0.46009 12.4877 0.459622C12.4765 0.458684 12.4657 0.457747 12.4545 0.457278C12.4456 0.457278 12.4367 0.456809 12.4277 0.45634C12.4188 0.45634 12.4104 0.455872 12.4015 0.455872C12.3898 0.455872 12.3785 0.455872 12.3668 0.45634C12.3607 0.45634 12.3546 0.45634 12.3481 0.456809C12.334 0.457278 12.3204 0.458684 12.3068 0.459622C12.3031 0.459622 12.2988 0.46009 12.2951 0.460559C12.2796 0.461965 12.2642 0.46384 12.2482 0.465716C12.2459 0.465716 12.244 0.466184 12.2417 0.466653C12.2252 0.468997 12.2084 0.471809 12.192 0.474622C12.1906 0.474622 12.1896 0.474622 12.1882 0.475091C12.1713 0.478372 12.1549 0.481653 12.1381 0.485872C12.1371 0.485872 12.1357 0.486341 12.1348 0.48681C12.1184 0.49056 12.1024 0.494779 12.0865 0.499466C12.0846 0.499935 12.0832 0.500404 12.0813 0.500873C12.0663 0.505091 12.0513 0.509779 12.0368 0.514935C12.034 0.515873 12.0312 0.51681 12.0279 0.517748C12.0148 0.522435 12.0016 0.527123 11.9885 0.532279C11.9838 0.534154 11.9791 0.536029 11.9745 0.537905C11.9637 0.542123 11.9524 0.54728 11.9416 0.551967C11.9351 0.55478 11.9281 0.558061 11.9215 0.560874C11.9126 0.565093 11.9041 0.569311 11.8957 0.57353C11.8868 0.577749 11.8784 0.582437 11.8695 0.586655C11.8629 0.589937 11.8563 0.593687 11.8498 0.597437C11.839 0.603062 11.8287 0.609156 11.8184 0.61525C11.8137 0.618062 11.809 0.620875 11.8043 0.624156C11.7926 0.631656 11.7804 0.639157 11.7687 0.646657C11.7649 0.649001 11.7616 0.651344 11.7584 0.653688C11.7457 0.662126 11.7335 0.671032 11.7213 0.679939C11.718 0.682282 11.7152 0.684626 11.712 0.68697C11.6998 0.695876 11.688 0.705252 11.6763 0.715096C11.6749 0.716502 11.673 0.717439 11.6712 0.718846L0.810011 9.77153C0.32672 10.1742 0.261094 10.8928 0.664227 11.3761C0.8897 11.6466 1.21361 11.7863 1.53987 11.7863C1.79675 11.7863 2.05551 11.6995 2.26832 11.5223L2.61942 11.2298V19.4828C2.61942 21.7258 4.43774 23.5442 6.68076 23.5442H18.1194C20.3624 23.5442 22.1808 21.7258 22.1808 19.4828V11.2298L22.5319 11.5223C22.7447 11.7 23.0034 11.7863 23.2603 11.7863C23.5866 11.7863 23.911 11.6466 24.136 11.3761C24.5386 10.8928 24.4735 10.1742 23.9902 9.77153ZM14.9262 21.2655H9.87395V16.3928C9.87395 15.1229 10.9071 14.0902 12.1765 14.0902H12.6232C13.8931 14.0902 14.9258 15.1234 14.9258 16.3928V21.2655H14.9262Z" fill="#475743"/>
</svg>
