<?xml version="1.0" encoding="UTF-8"?><svg id="Layer_1" xmlns="http://www.w3.org/2000/svg" viewBox="0 0 512 512"><defs><style>.cls-1{fill:none;}</style></defs><rect class="cls-1" y="0" width="512" height="512"/><path d="m503.25,208.44L271.56,15.38s-.06-.05-.09-.07c-.26-.22-.53-.42-.79-.63-.05-.04-.11-.08-.16-.12-.28-.21-.56-.41-.84-.6-.06-.04-.11-.08-.17-.12-.27-.18-.54-.35-.82-.52-.08-.05-.16-.1-.24-.15-.25-.15-.5-.29-.75-.43-.11-.06-.23-.13-.34-.19-.21-.11-.43-.22-.64-.33-.16-.08-.31-.15-.47-.23-.17-.08-.35-.16-.52-.23-.2-.09-.4-.18-.6-.26-.13-.05-.27-.1-.41-.16-.24-.09-.48-.18-.73-.27-.1-.04-.21-.07-.31-.1-.28-.09-.55-.18-.83-.26-.08-.02-.16-.04-.24-.07-.3-.08-.6-.17-.9-.24-.07-.02-.14-.03-.21-.05-.31-.07-.62-.14-.93-.2-.08-.02-.16-.03-.24-.04-.3-.05-.6-.11-.9-.15-.1-.01-.21-.03-.31-.04-.28-.04-.55-.07-.83-.1-.14-.01-.28-.02-.42-.03-.24-.02-.47-.04-.71-.05-.19,0-.38-.01-.57-.02-.19,0-.37-.01-.56-.01-.25,0-.49,0-.74.01-.13,0-.26,0-.4.01-.3.01-.59.04-.88.06-.08,0-.17.01-.25.02-.33.03-.66.07-1,.11-.05,0-.09.01-.14.02-.35.05-.71.11-1.06.17-.03,0-.05,0-.08.01-.36.07-.71.14-1.07.23-.02,0-.05.01-.07.02-.35.08-.69.17-1.03.27-.04.01-.07.02-.11.03-.32.09-.64.19-.95.3-.06.02-.12.04-.19.06-.28.1-.56.2-.84.31-.1.04-.2.08-.3.12-.23.09-.47.2-.7.3-.14.06-.29.13-.43.19-.19.09-.37.18-.55.27-.19.09-.37.19-.56.28-.14.07-.28.15-.42.23-.23.12-.45.25-.67.38-.1.06-.2.12-.3.19-.25.16-.51.32-.76.48-.08.05-.15.1-.22.15-.27.18-.53.37-.79.56-.07.05-.13.1-.2.15-.26.19-.51.39-.76.6-.03.03-.07.05-.11.08L8.75,208.44c-10.31,8.59-11.71,23.92-3.11,34.23,4.81,5.77,11.72,8.75,18.68,8.75,5.48,0,11-1.85,15.54-5.63l7.49-6.24v176.06c0,47.85,38.79,86.64,86.64,86.64h244.02c47.85,0,86.64-38.79,86.64-86.64v-176.06l7.49,6.24c4.54,3.79,10.06,5.63,15.54,5.63,6.96,0,13.88-2.98,18.68-8.75,8.59-10.31,7.2-25.64-3.11-34.23Zm-193.36,245.2h-107.78v-103.95c0-27.09,22.04-49.12,49.12-49.12h9.53c27.09,0,49.12,22.04,49.12,49.12v103.95Z"/></svg>