<?xml version="1.0" encoding="UTF-8"?><svg id="Layer_1" xmlns="http://www.w3.org/2000/svg" viewBox="0 0 512 512"><defs><style>.cls-1{fill:none;}</style></defs><rect class="cls-1" y="0" width="512" height="512"/><path d="m152.46,120c-26.51,0-48,21.49-48,48s21.49,48,48,48,48-21.49,48-48-21.5-48-48-48ZM447.56,32H63.56C29.11,32,.45,60.65.45,96v320c0,35.35,28.65,64,63.1,64h384c35.35,0,64-28.65,64-64V96c0-35.35-27.79-64-63.99-64Zm16,377.3l-136.8-185.9c-2.5-4.6-8.2-7.4-14.3-7.4s-11.82,2.77-15.21,7.38l-106.6,144.1-37.09-46.1c-3.44-4.28-8.93-6.81-14.77-6.81s-11.33,2.53-14.78,6.81l-75.52,93.81s0,.03,0,0l-.04-319.19c0-8.82,7.18-16,16-16h384c8.82,0,16,7.18,16,16v313.3h-.89Z"/></svg>