<?xml version="1.0" encoding="UTF-8"?><svg id="Layer_1" xmlns="http://www.w3.org/2000/svg" viewBox="0 0 512 512"><defs><style>.cls-1{fill:none;}</style></defs><rect class="cls-1" y="0" width="512" height="512"/><path d="m447.56,32H63.56C29.1,32,.45,60.65.45,96v320c0,35.35,28.65,64,63.1,64h384c35.35,0,64-28.65,64-64V96c0-35.35-27.79-64-63.99-64ZM111.56,96c26.51,0,48,21.49,48,48s-20.6,48-48,48-48-21.49-48-48,22.38-48,48-48Zm335,311.6c-2.8,5.2-8.2,8.4-14.1,8.4H82.47c-6.02,0-11.53-3.38-14.26-8.75-2.73-5.37-2.21-11.81,1.33-16.68l70-96c3.02-4.17,7.82-6.57,12.92-6.57s9.92,2.44,12.93,6.57l32.46,44.51,93.3-139.1c3.01-5.28,8.01-7.98,13.31-7.98s10.35,2.67,13.31,7.12l128,192c3.29,4.88,3.59,11.17.79,16.48Z"/></svg>