<svg width="24" height="24" viewBox="0 0 24 24" fill="none" xmlns="http://www.w3.org/2000/svg">
<path d="M12 6.75C9.09844 6.75 6.75 9.09844 6.75 12C6.75 14.9016 9.10031 17.25 12 17.25C14.8997 17.25 17.25 14.8997 17.25 12C17.25 9.10031 14.9016 6.75 12 6.75ZM12 15C10.3458 15 9 13.6542 9 12C9 10.3458 10.3458 9 12 9C13.6542 9 15 10.3458 15 12C15 13.6542 13.6547 15 12 15ZM12 5.25C12.6211 5.25 13.125 4.74609 13.125 4.125V1.125C13.125 0.503906 12.6234 0 12 0C11.3766 0 10.875 0.503906 10.875 1.125V4.125C10.875 4.74844 11.3813 5.25 12 5.25ZM12 18.75C11.3789 18.75 10.875 19.2539 10.875 19.875V22.875C10.875 23.4984 11.3813 24 12 24C12.6187 24 13.125 23.4961 13.125 22.875V19.875C13.125 19.2563 12.6234 18.75 12 18.75ZM22.875 10.875H19.875C19.2539 10.875 18.75 11.3789 18.75 12C18.75 12.6211 19.2539 13.125 19.875 13.125H22.875C23.4984 13.125 24 12.6234 24 12C24 11.3766 23.4984 10.875 22.875 10.875ZM5.25 12C5.25 11.3789 4.74609 10.875 4.125 10.875H1.125C0.503906 10.875 0 11.3813 0 12C0 12.6187 0.503906 13.125 1.125 13.125H4.125C4.74844 13.125 5.25 12.6234 5.25 12ZM18.3656 16.7719C17.9278 16.3322 17.2144 16.3327 16.7747 16.7719C16.335 17.2111 16.335 17.9231 16.7747 18.3623L18.8958 20.4848C19.1147 20.7047 19.4034 20.8144 19.6912 20.8144C19.9791 20.8144 20.2669 20.7047 20.4867 20.4848C20.9264 20.0452 20.9264 19.3336 20.4867 18.8939L18.3656 16.7719ZM5.63437 7.22812C5.85328 7.44797 6.14203 7.55766 6.42984 7.55766C6.71766 7.55766 7.00781 7.44844 7.22812 7.22812C7.66781 6.78844 7.66781 6.07687 7.22812 5.63766L5.10469 3.51422C4.66687 3.07453 3.95344 3.07453 3.51375 3.51422C3.07406 3.95391 3.07406 4.66547 3.51375 5.10516L5.63437 7.22812ZM17.5687 7.55625C17.8566 7.55625 18.1453 7.44656 18.3642 7.22672L20.4853 5.10422C20.925 4.66453 20.925 3.95297 20.4853 3.51328C20.0456 3.07359 19.3327 3.07359 18.8944 3.51328L16.7733 5.63578C16.3336 6.07547 16.3336 6.78703 16.7733 7.22625C16.9922 7.44844 17.2828 7.55625 17.5687 7.55625ZM5.63437 16.7719L3.51328 18.8944C3.07359 19.3341 3.07359 20.0456 3.51328 20.4853C3.73312 20.7052 4.02094 20.8148 4.30875 20.8148C4.59656 20.8148 4.88531 20.7052 5.10422 20.4853L7.22531 18.3628C7.665 17.9231 7.665 17.2116 7.22531 16.7723C6.78562 16.3331 6.075 16.3312 5.63437 16.7719Z" fill="#6D7482"/>
</svg>
