<?xml version="1.0" encoding="UTF-8"?><svg id="Layer_1" xmlns="http://www.w3.org/2000/svg" viewBox="0 0 512 512"><defs><style>.cls-1{fill:none;}</style></defs><rect class="cls-1" y="0" width="512" height="512"/><path d="m120.2,154.2c4.67,4.69,10.83,7.03,16.97,7.03s12.33-2.33,17.03-7.03c9.38-9.38,9.38-24.56,0-33.93l-45.3-45.3c-9.34-9.38-24.56-9.38-33.94,0s-9.38,24.56,0,33.94l45.24,45.29Zm135.8-42.2c13.25,0,24-10.75,24-24V24c0-13.25-10.7-24-24-24s-24,10.75-24,24v64c0,13.3,10.8,24,24,24Zm-144,144c0-13.25-10.75-24-24-24H24c-13.25,0-24,10.8-24,24s10.75,24,24,24h64c13.3,0,24-10.7,24-24Zm262.8-94.8c6.14,0,12.3-2.34,16.97-7.03l45.25-45.28c9.38-9.38,9.38-24.56,0-33.94s-24.59-9.38-33.94,0l-45.25,45.28c-9.38,9.38-9.38,24.56,0,33.93,4.67,4.74,10.87,7.04,16.97,7.04Zm-118.8,238.8c-13.25,0-24,10.75-24,24v64c0,13.3,10.8,24,24,24s24-10.75,24-24v-64c0-13.2-10.7-24-24-24Zm-135.8-42.2l-45.25,45.28c-9.38,9.38-9.38,24.56,0,33.94,4.69,4.69,10.83,7.03,16.97,7.03s12.3-2.34,16.97-7.03l45.25-45.28c9.38-9.38,9.38-24.56,0-33.93s-24.54-9.41-33.94-.01Zm367.8-125.8h-64c-13.25,0-24,10.75-24,24s10.75,24,24,24h64c13.3,0,24-10.7,24-24s-10.7-24-24-24Zm-96.2,125.8c-9.34-9.38-24.56-9.37-33.94,0-9.38,9.38-9.38,24.56,0,33.93l45.25,45.28c4.67,4.69,10.83,7.03,16.97,7.03s12.28-2.34,16.97-7.03c9.38-9.38,9.38-24.56,0-33.94l-45.25-45.27Zm-135.8-213.8c-61.9,0-112,50.1-112,112s50.14,112,112,112,112-50.14,112-112-50.1-112-112-112Z"/></svg>