<?xml version="1.0" encoding="UTF-8"?><svg id="Layer_1" xmlns="http://www.w3.org/2000/svg" viewBox="0 0 512 512"><defs><style>.cls-1{fill:none;}</style></defs><path d="m412.24,73.34c14.57,0,26.42,11.86,26.42,26.42v53.55c0,14.57-11.85,26.42-26.42,26.42h-53.55c-14.57,0-26.42-11.86-26.42-26.42v-53.55c0-14.57,11.85-26.42,26.42-26.42h53.55Zm0-44.34h-53.55c-39.09,0-70.76,31.68-70.76,70.76v53.55c0,39.09,31.68,70.76,70.76,70.76h53.55c39.09,0,70.76-31.68,70.76-70.76v-53.55c0-39.09-31.68-70.76-70.76-70.76Z"/><path d="m153.32,73.34c14.57,0,26.42,11.86,26.42,26.42v53.55c0,14.57-11.86,26.42-26.42,26.42h-53.55c-14.57,0-26.42-11.86-26.42-26.42v-53.55c0-14.57,11.86-26.42,26.42-26.42h53.55Zm0-44.34h-53.55c-39.09,0-70.77,31.68-70.77,70.76v53.55c0,39.09,31.68,70.76,70.76,70.76h53.55c39.09,0,70.76-31.68,70.76-70.76v-53.55c0-39.08-31.67-70.76-70.75-70.76Z"/><path d="m412.24,332.27c14.57,0,26.42,11.85,26.42,26.42v53.55c0,14.57-11.85,26.42-26.42,26.42h-53.55c-14.57,0-26.42-11.85-26.42-26.42v-53.55c0-14.57,11.85-26.42,26.42-26.42h53.55Zm0-44.34h-53.55c-39.09,0-70.76,31.68-70.76,70.76v53.55c0,39.09,31.68,70.76,70.76,70.76h53.55c39.09,0,70.76-31.68,70.76-70.76v-53.55c0-39.09-31.68-70.76-70.76-70.76Z"/><path d="m153.32,332.27c14.57,0,26.42,11.85,26.42,26.42v53.55c0,14.57-11.86,26.42-26.42,26.42h-53.55c-14.57,0-26.42-11.85-26.42-26.42v-53.55c0-14.57,11.86-26.42,26.42-26.42h53.55Zm0-44.34h-53.55c-39.09,0-70.76,31.68-70.76,70.76v53.55c0,39.09,31.68,70.76,70.76,70.76h53.55c39.09,0,70.76-31.68,70.76-70.76v-53.55c0-39.09-31.68-70.76-70.76-70.76Z"/><rect class="cls-1" width="512" height="512"/></svg>