<?xml version="1.0" encoding="UTF-8"?><svg id="Layer_1" xmlns="http://www.w3.org/2000/svg" viewBox="0 0 512 512"><defs><style>.cls-1{fill:none;}</style></defs><rect class="cls-1" y="0" width="512" height="512"/><path d="m99.76,224.07h53.55c39.09,0,70.76-31.68,70.76-70.76v-53.55c0-39.08-31.67-70.76-70.75-70.76h-53.55c-39.09,0-70.77,31.68-70.77,70.76v53.55c0,39.09,31.68,70.76,70.76,70.76Z"/><rect x="287.93" y="287.93" width="195.07" height="195.07" rx="70.76" ry="70.76"/><rect x="29.01" y="287.93" width="195.07" height="195.07" rx="70.76" ry="70.76"/><path d="m358.69,29h53.55c39.05,0,70.76,31.71,70.76,70.76v53.55c0,39.05-31.71,70.76-70.76,70.76h-53.55c-39.05,0-70.76-31.71-70.76-70.76v-53.55c0-39.05,31.71-70.76,70.76-70.76Z"/></svg>