<svg width="18" height="24" viewBox="0 0 18 24" fill="none" xmlns="http://www.w3.org/2000/svg">
<path d="M9.37988 17.7305C10.0117 17.7305 10.5199 18.2546 10.5199 18.9061C10.5199 19.5577 10.0117 20.0817 9.37988 20.0817C6.65353 20.0817 4.44036 17.7994 4.44036 14.9438C4.44036 14.3363 4.94854 13.7682 5.58036 13.7682C6.21217 13.7682 6.72035 14.3363 6.72035 14.9438C6.72035 16.5014 7.91216 17.7305 9.37988 17.7305ZM17.3594 15.3352C17.3594 20.1403 13.6167 24 8.99988 24C4.38309 24 0.640381 20.1403 0.640381 15.3352C0.640381 11.7497 5.49945 4.08572 7.80762 0.650739C8.3917 -0.216913 9.60761 -0.216913 10.1922 0.650739C12.5003 4.08572 17.3594 11.7497 17.3594 15.3352ZM14.443 12.8958C14.0012 11.7399 13.3744 10.388 12.6476 9.08023C11.4649 6.87618 10.0826 4.67681 8.99988 3.01979C7.91716 4.67681 6.5349 6.87618 5.35218 9.08023C4.62763 10.388 3.99855 11.7399 3.55628 12.8958C3.09355 14.101 2.92037 14.9236 2.92037 15.3352C2.92037 18.8424 5.64172 21.6488 8.99988 21.6488C12.358 21.6488 15.0794 18.8424 15.0794 15.3352C15.0794 14.9236 14.9035 14.101 14.443 12.8958Z" fill="#6D7482"/>
</svg>

