<?xml version="1.0" encoding="UTF-8"?><svg id="Layer_1" xmlns="http://www.w3.org/2000/svg" viewBox="0 0 512 512"><defs><style>.cls-1{fill:none;}</style></defs><rect class="cls-1" y="0" width="512" height="512"/><path d="m72.09,327.15c0-76.49,106.9-239.99,157.68-313.27,12.85-18.51,39.6-18.51,52.46,0,50.78,73.28,157.68,236.78,157.68,313.27,0,102.51-82.34,184.85-183.91,184.85s-183.91-82.34-183.91-184.85Zm100.31,0c0-8.25-7.52-16.72-16.72-16.72s-16.72,8.46-16.72,16.72c0,65.62,52.35,117.97,117.03,117.97,9.2,0,16.72-7.52,16.72-16.72s-7.52-16.72-16.72-16.72c-46.19,0-83.59-37.41-83.59-84.53Z"/></svg>