<svg width="28" height="24" viewBox="0 0 28 24" fill="none" xmlns="http://www.w3.org/2000/svg">
<path d="M23.3715 0C18.6443 0 14.6287 3.63643 13.2625 8.64643C11.33 5.49643 8.18194 3.42857 4.63025 3.42857L0.701416 3.38036V4.71429C0.701416 11.5661 5.46765 17.1429 11.3196 17.1429H12.7534V22.7143C12.7534 23.4214 13.3144 24 13.9534 24C14.5923 24 15.2469 23.4214 15.2469 22.7143V13.7143H16.6817C22.53 13.7143 27.2988 8.1375 27.2988 1.28571V0H23.3715ZM11.3196 14.5714C7.20271 14.5714 3.78194 10.8348 3.26245 6H4.62609C8.74297 6 12.1638 9.73661 12.6832 14.5714H11.3196ZM16.6806 11.1429H15.317C15.8365 6.30804 19.2583 2.57143 23.3741 2.57143H24.7378C24.2235 7.40357 20.8001 11.1429 16.6806 11.1429Z" fill="#6D7482"/>
</svg>
