<svg width="18" height="24" viewBox="0 0 18 24" fill="none" xmlns="http://www.w3.org/2000/svg">
<path d="M17.1906 13.1358C17.0378 13.0397 16.8587 12.9947 16.6782 12.9947H14.4273C15.3995 12.3389 16.1907 11.3967 16.6825 10.2436C17.3729 8.62356 17.2923 7.0106 17.0945 5.917C16.9989 5.38685 16.4092 5.22278 16.119 5.64888C15.759 6.1781 15.3006 6.7631 14.724 7.33778C13.8798 8.17966 13.7997 7.98513 13.1692 8.69575C12.3967 9.56622 11.9111 10.6045 10.9717 12.645C10.9159 12.7664 10.8629 12.8826 10.8123 12.9942H10.0464C10.435 12.4251 10.8531 11.8129 11.1489 11.3798C11.9284 10.2384 12.1295 8.40653 11.6382 6.9131C10.9253 4.74325 10.2123 2.57341 9.49887 0.403564C9.32168 -0.135498 8.68043 -0.135498 8.50325 0.403564C7.78981 2.57341 7.07684 4.74325 6.3634 6.9131C5.87262 8.40653 6.07325 10.2384 6.85278 11.3798L7.95528 12.9942H7.18934C7.13871 12.8826 7.08575 12.7659 7.02996 12.645C6.09059 10.604 5.60496 9.56622 4.83246 8.69575C4.20153 7.98513 4.12184 8.17966 3.27762 7.33778C2.70106 6.7631 2.24262 6.1781 1.88262 5.64888C1.59246 5.22231 1.00278 5.38685 0.907152 5.917C0.709339 7.0106 0.628714 8.6231 1.31918 10.2436C1.8109 11.3967 2.60215 12.3389 3.57434 12.9947H1.32153C1.14106 12.9947 0.961996 13.0397 0.809183 13.1358C0.48809 13.3378 0.326839 13.7006 0.375121 14.0587L1.61637 23.189C1.67965 23.6536 2.07621 24.0004 2.54543 24.0004H15.4539C15.9226 24.0004 16.3197 23.654 16.3829 23.189L17.6242 14.0587C17.6729 13.7006 17.5117 13.3378 17.1906 13.1358ZM15.5218 15.6079L15.4937 15.8151C15.4656 16.0195 15.2907 16.1718 15.084 16.1718H2.912C2.70809 16.1718 2.53512 16.0214 2.507 15.8189V15.8151L2.4784 15.6079C2.42543 15.2175 2.72871 14.8701 3.12293 14.8701H14.8773C15.2715 14.8701 15.5748 15.2179 15.5218 15.6079Z" fill="#475743"/>
</svg>
