<svg width="18" height="24" viewBox="0 0 18 24" fill="none" xmlns="http://www.w3.org/2000/svg">
<path d="M17.2355 13.1358C17.0827 13.0397 16.9037 12.9947 16.7232 12.9947H14.7048C15.6446 12.3839 16.4147 11.5477 16.9097 10.5375C18.0601 8.19094 17.2693 5.86875 16.9998 5.21297C16.8662 4.88859 16.5629 4.66594 16.2132 4.63547C15.8635 4.60547 15.5265 4.77281 15.3394 5.06953C14.8646 5.82281 14.2899 6.49453 13.6313 7.06547C13.3032 7.34953 13.1396 7.45125 12.9657 7.55859C12.8391 7.63688 12.7098 7.71703 12.5527 7.83984C12.4998 7.58531 12.4266 7.335 12.3315 7.09172L9.79272 0.59625C9.65209 0.236719 9.30569 0 8.91991 0C8.53366 0 8.18725 0.236719 8.04662 0.59625L5.50694 7.09125C5.41178 7.33453 5.33865 7.58484 5.28569 7.83938C5.12819 7.71656 4.99928 7.63641 4.87272 7.55813C4.69928 7.45078 4.53522 7.34953 4.20709 7.065C3.5485 6.49406 2.97381 5.82281 2.49897 5.06906C2.31194 4.77234 1.97491 4.605 1.62522 4.635C1.27553 4.665 0.972249 4.88812 0.838655 5.2125C0.568655 5.86828 -0.222126 8.19047 0.928655 10.537C1.42366 11.5472 2.19381 12.3839 3.13366 12.9942H1.36647C1.186 12.9942 1.00694 13.0392 0.854124 13.1353C0.53303 13.3373 0.37178 13.7002 0.42053 14.0583L1.66178 23.1886C1.72506 23.6531 2.12162 24 2.59084 24H15.4993C15.968 24 16.3651 23.6536 16.4283 23.1886L17.6696 14.0583C17.7183 13.7002 17.5571 13.3373 17.236 13.1353L17.2355 13.1358ZM13.4541 9.54234C13.6796 9.32156 13.7822 9.25828 13.9524 9.15281C14.1596 9.02437 14.4179 8.865 14.8594 8.48203C15.1327 8.24484 15.3943 7.99406 15.6427 7.72969C15.6587 8.33578 15.5626 9.02625 15.2265 9.71203C14.588 11.0138 13.283 11.9086 11.761 12.1683C12.503 10.7719 12.894 10.0913 13.4541 9.54234ZM7.25303 7.77422L8.91897 3.51281L10.5844 7.77422C10.9332 8.66719 10.7963 9.79547 10.2587 10.4573L8.9185 12.1069L7.57834 10.4573C7.04069 9.79547 6.90334 8.66672 7.25256 7.77422H7.25303ZM2.19522 7.73016C2.44366 7.99453 2.70522 8.24578 2.9785 8.4825C3.42006 8.86547 3.67834 9.02484 3.88553 9.15328C4.05569 9.25875 4.15834 9.32203 4.38381 9.54281C4.94444 10.0917 5.33491 10.7728 6.07694 12.1688C4.55491 11.9091 3.24991 11.0138 2.61147 9.7125C2.27537 9.02672 2.17881 8.33625 2.19522 7.73016ZM15.0966 19.0594L14.7563 21.5625C14.7122 21.885 14.4371 22.1255 14.1118 22.1255H3.97647C3.65116 22.1255 3.376 21.885 3.33194 21.5625L2.99162 19.0594C2.94522 18.7181 3.21053 18.4144 3.55506 18.4144H14.5337C14.8782 18.4144 15.143 18.7181 15.0971 19.0594H15.0966ZM15.5658 15.608L15.5377 15.8152C15.4815 16.23 15.1271 16.5389 14.7085 16.5389H3.37975C2.96116 16.5389 2.60725 16.2295 2.55053 15.8152L2.52241 15.608C2.46944 15.2175 2.77272 14.8702 3.16694 14.8702H14.9213C15.3155 14.8702 15.6188 15.218 15.5658 15.608Z" fill="#ADB4AB"/>
</svg>
