<?xml version="1.0" encoding="UTF-8"?><svg id="Layer_1" xmlns="http://www.w3.org/2000/svg" viewBox="0 0 512 512"><defs><style>.cls-1{fill:none;}</style></defs><rect class="cls-1" y="0" width="512" height="512"/><path d="m176,32c26.5,0,48,21.49,48,48v96c0,26.5-21.5,48-48,48h-96c-26.51,0-48-21.5-48-48v-96c0-26.51,21.49-48,48-48h96Zm-16,64h-64v64h64v-64Zm16,192c26.5,0,48,21.5,48,48v96c0,26.5-21.5,48-48,48h-96c-26.51,0-48-21.5-48-48v-96c0-26.5,21.49-48,48-48h96Zm-16,64h-64v64h64v-64Zm128-272c0-26.51,21.5-48,48-48h96c26.5,0,48,21.49,48,48v96c0,26.5-21.5,48-48,48h-96c-26.5,0-48-21.5-48-48v-96Zm64,80h64v-64h-64v64Zm32,288h32v32h-32v-32Zm96,32h-32v-32h32v32Zm-32-192h32v128h-96v-32h-32v96h-64v-192h96v32h64v-32Z"/></svg>