<?xml version="1.0" encoding="UTF-8"?><svg id="Layer_1" xmlns="http://www.w3.org/2000/svg" viewBox="0 0 512 512"><defs><style>.cls-1{fill:none;}</style></defs><rect class="cls-1" y="0" width="512" height="512"/><path d="m136,104c8.8,0,16,8.1,16,16v16c0,9.7-7.2,16-16,16h-16c-8.84,0-16-6.3-16-16v-16c0-7.9,7.16-16,16-16h16Zm-104-24c0-25.61,21.49-48,48-48h96c26.5,0,48,22.39,48,48v96c0,27.4-21.5,48-48,48h-96c-26.51,0-48-20.6-48-48v-96Zm48,96h96v-96h-96v96Zm24,200c0-7.9,7.16-16,16-16h16c8.8,0,16,8.1,16,16v16c0,9.7-7.2,16-16,16h-16c-8.84,0-16-6.3-16-16v-16Zm-72-40c0-25.6,21.49-48,48-48h96c26.5,0,48,22.4,48,48v96c0,27.4-21.5,48-48,48h-96c-26.51,0-48-20.6-48-48v-96Zm48,96h96v-96h-96v96ZM392,104c8.8,0,16,8.1,16,16v16c0,9.7-7.2,16-16,16h-16c-8.8,0-16-6.3-16-16v-16c0-7.9,7.2-16,16-16h16Zm40-72c26.5,0,48,22.39,48,48v96c0,27.4-21.5,48-48,48h-96c-26.5,0-48-20.6-48-48v-96c0-25.61,21.5-48,48-48h96Zm0,48h-96v96h96v-96Zm-16,400h-32v-32h32v32Zm32-32h32v32h-32v-32Zm32-32h-96v-32h-32v96h-64v-192h96v32h64v-32h32v128Z"/></svg>