<svg width="18" height="18" viewBox="0 0 18 18" fill="none" xmlns="http://www.w3.org/2000/svg">
<path d="M18 4C18 6.07031 16.3203 7.75 14.25 7.75C13.1211 7.75 12.1094 7.25 11.4219 6.46094L7.91797 8.21484C7.97266 8.46875 7.96484 8.73047 7.96484 8.96484C7.96484 9.26953 7.97266 9.53125 7.91797 9.78516L11.4219 11.5039C12.1094 10.75 13.1211 10.2148 14.25 10.2148C16.3203 10.2148 18 11.8945 18 14C18 16.0703 16.3203 17.75 14.25 17.75C12.1445 17.75 10.5 16.0703 10.5 14C10.5 13.7305 10.5273 13.4687 10.582 13.2148L7.07812 11.4609C6.39062 12.25 5.37891 12.75 4.25 12.75C2.17891 12.75 0.5 11.0703 0.5 8.96484C0.5 6.89453 2.17891 5.21484 4.25 5.21484C5.37891 5.21484 6.39062 5.75 7.07812 6.50391L10.582 4.78516C10.5273 4.53125 10.5 4.26953 10.5 4C10.5 1.92891 12.1445 0.25 14.25 0.25C16.3203 0.25 18 1.92891 18 4ZM4.21484 10.875C5.28516 10.875 6.08984 10.0352 6.08984 9C6.08984 7.96484 5.28516 7.125 4.21484 7.125C3.21445 7.125 2.33984 7.96484 2.33984 9C2.33984 10.0352 3.21445 10.875 4.21484 10.875ZM14.25 2.125C13.2148 2.125 12.375 2.96484 12.375 4C12.375 5.03516 13.2148 5.875 14.25 5.875C15.2852 5.875 16.125 5.03516 16.125 4C16.125 2.96484 15.2852 2.125 14.25 2.125ZM14.25 15.875C15.2852 15.875 16.125 15.0352 16.125 14C16.125 12.9648 15.2852 12.125 14.25 12.125C13.2148 12.125 12.375 12.9648 12.375 14C12.375 15.0352 13.2148 15.875 14.25 15.875Z" fill="#6D7482"/>
</svg>
