<?xml version="1.0" encoding="UTF-8"?><svg id="Layer_1" xmlns="http://www.w3.org/2000/svg" viewBox="0 0 512 512"><defs><style>.cls-1{fill:none;}</style></defs><rect class="cls-1" y="0" width="512" height="512"/><path d="m144,112C144,50.14,194.1,0,256,0s112,50.14,112,112v48h64c26.5,0,48,21.5,48,48v208c0,53-43,96-96,96H128c-53.02,0-96-43-96-96v-208c0-26.5,21.49-48,48-48h64v-48Zm48,48h128v-48c0-35.35-28.7-64-64-64s-64,28.65-64,64v48Zm-24,96c13.3,0,24-10.7,24-24s-10.7-24-24-24-24,10.7-24,24,10.7,24,24,24Zm176-48c-13.3,0-24,10.7-24,24s10.7,24,24,24,24-10.7,24-24-10.7-24-24-24Z"/></svg>