<?xml version="1.0" encoding="UTF-8"?><svg id="Layer_1" xmlns="http://www.w3.org/2000/svg" viewBox="0 0 512 512"><defs><style>.cls-1{fill:none;}</style></defs><rect class="cls-1" y="0" width="512" height="512"/><path d="m426.67,99.56c0-23.56-19.11-42.67-42.67-42.67H128c-23.56,0-42.67,19.1-42.67,42.67v270.22h341.33V99.56Zm-89.87,77.16l-78.22,99.56c-3.58,4.58-8.89,7.5-14.69,8.06-.68-.68-1.48-.68-2.91-.68-5.08,0-9.96-1.79-13.85-5.13l-49.78-42.67c-8.2-6.87-9.17-20.38-1.53-29.27,7.69-8.94,21.16-9.95,30.08-2.31l32.86,28.17,64.47-82.03c7.28-9.25,20.72-10.86,29.95-3.61,9.31,7.24,10.91,20.66,3.62,29.91Zm132.53,107.73h-14.22v99.56c0,7.85-6.37,14.22-14.22,14.22H71.11c-7.86,0-14.22-6.4-14.22-14.22v-99.56h-14.22c-23.56,0-42.67,19.11-42.67,42.67v85.33c0,23.56,19.1,42.67,42.67,42.67h426.67c23.56,0,42.67-19.1,42.67-42.67v-85.33c0-23.56-19.11-42.67-42.67-42.67Z"/></svg>