<?xml version="1.0" encoding="UTF-8"?><svg id="Layer_1" xmlns="http://www.w3.org/2000/svg" viewBox="0 0 512 512"><defs><style>.cls-1{fill:none;}</style></defs><rect class="cls-1" y="0" width="512" height="512"/><path d="m344,144h-155.3c-13.25,0-24,10.75-24,24s10.8,24,24,24h97.34l-135,135c-9.38,9.38-9.38,24.56,0,33.94,4.66,4.76,10.76,7.06,16.96,7.06s12.28-2.34,16.97-7.03l135.03-135.07v97.34c0,13.25,10.75,24,24,24s24-10.75,24-24v-155.24c0-13.2-10.7-24-24-24Zm72-112H96c-35.35,0-64,28.66-64,64v320c0,35.34,28.65,64,64,64h320c35.35,0,64-28.66,64-64V96c0-35.34-28.7-64-64-64Zm16,384c0,8.82-7.18,16-16,16H96c-8.82,0-16-7.18-16-16V96c0-8.82,7.18-16,16-16h320c8.82,0,16,7.18,16,16v320Z"/></svg>