<?xml version="1.0" encoding="UTF-8"?><svg id="Layer_1" xmlns="http://www.w3.org/2000/svg" viewBox="0 0 512 512"><defs><style>.cls-1{fill:none;}</style></defs><rect class="cls-1" y="0" width="512" height="512"/><path d="m416,32H96c-35.35,0-64,28.66-64,64v320c0,35.34,28.65,64,64,64h320c35.35,0,64-28.66,64-64V96c0-35.34-28.7-64-64-64Zm-40,280c0,17.69-14.31,32-32,32s-32-14.31-32-32v-66.7l-121.4,121.4c-6.2,6.2-14.4,9.3-22.6,9.3s-16.38-3.13-22.62-9.38c-12.5-12.5-12.5-32.75,0-45.25l121.42-121.37h-66.8c-17.69,0-32-14.31-32-32s14.31-32,32-32h144c17.69,0,32,14.31,32,32v144Z"/></svg>