<?xml version="1.0" encoding="UTF-8"?><svg id="Layer_1" xmlns="http://www.w3.org/2000/svg" viewBox="0 0 512 512"><defs><style>.cls-1{fill:none;}</style></defs><rect class="cls-1" y="0" width="512" height="512"/><path d="m398.24,0H113.76C50.93,0,0,50.93,0,113.76v284.49c0,62.83,50.93,113.76,113.76,113.76h284.49c62.83,0,113.76-50.93,113.76-113.76V113.76C512,50.93,461.07,0,398.24,0ZM50,113.76c0-35.16,28.6-63.76,63.76-63.76h284.49c35.16,0,63.76,28.6,63.76,63.76v88.5c-10.61-10.34-26.05-22.3-51.49-22.3-29.97,0-46.08,16.61-56.73,27.6-9.13,9.42-12.43,12.4-20.83,12.4s-11.7-2.98-20.83-12.4c-10.66-10.99-26.76-27.6-56.73-27.6s-46.07,16.61-56.73,27.6c-9.13,9.42-12.42,12.4-20.83,12.4s-11.7-2.98-20.83-12.4c-10.65-10.99-26.76-27.6-56.73-27.6-24.48,0-39.7,11.08-50.26,21.12v-87.32Z"/></svg>