<svg width="24" height="24" viewBox="0 0 24 24" fill="none" xmlns="http://www.w3.org/2000/svg">
<path d="M18.6671 23.9995H5.3324C2.3873 23.9995 0 21.6122 0 18.6671V5.3324C0 2.3873 2.3873 0 5.3324 0H18.6676C21.6127 0 24 2.3873 24 5.3324V18.6676C24 21.6127 21.6127 24 18.6676 24L18.6671 23.9995ZM21.6558 5.3324C21.6558 3.6843 20.3152 2.3437 18.6671 2.3437H5.3324C3.6843 2.3437 2.3437 3.6843 2.3437 5.3324V9.42544C2.83869 8.95436 3.55259 8.43546 4.6996 8.43546C6.10441 8.43546 6.85908 9.21404 7.35876 9.72918C7.78672 10.1707 7.94094 10.3104 8.33515 10.3104C8.72936 10.3104 8.88358 10.1707 9.31154 9.72918C9.81075 9.21404 10.5659 8.43546 11.9707 8.43546C13.3755 8.43546 14.1302 9.21404 14.6299 9.72918C15.0578 10.1707 15.212 10.3104 15.6063 10.3104C16.0005 10.3104 16.1547 10.1707 16.5826 9.72918C17.0823 9.21404 17.837 8.43546 19.2418 8.43546C20.4343 8.43546 21.1585 8.99607 21.6554 9.48075V5.3324H21.6558ZM21.6558 12.4249C20.9897 12.1549 20.5487 11.7002 20.2187 11.3599C19.7907 10.9184 19.6365 10.7787 19.2423 10.7787C18.8481 10.7787 18.6939 10.9184 18.2659 11.3599C17.7662 11.8751 17.0115 12.6537 15.6067 12.6537C14.2019 12.6537 13.4472 11.8751 12.9476 11.3599C12.5196 10.9184 12.3654 10.7787 11.9712 10.7787C11.577 10.7787 11.4227 10.9184 10.9948 11.3599C10.4956 11.8751 9.74043 12.6537 8.33562 12.6537C6.9308 12.6537 6.17613 11.8751 5.67645 11.3599C5.24849 10.9184 5.09428 10.7787 4.70006 10.7787C4.30585 10.7787 4.15164 10.9184 3.72368 11.3599C3.40353 11.6904 2.97791 12.1282 2.34417 12.4005V18.6671C2.34417 20.3152 3.68477 21.6558 5.33286 21.6558H18.7651V21.6535C20.3682 21.6019 21.6563 20.2829 21.6563 18.6676V12.4254L21.6558 12.4249Z" fill="#6D7482"/>
</svg>

